<?xml version="1.0" standalone="no"?>
<!DOCTYPE svg PUBLIC "-//W3C//DTD SVG 20010904//EN"
 "http://www.w3.org/TR/2001/REC-SVG-20010904/DTD/svg10.dtd">
<svg version="1.0" xmlns="http://www.w3.org/2000/svg"
 width="981.000000pt" height="981.000000pt" viewBox="0 0 981.000000 981.000000"
 preserveAspectRatio="xMidYMid meet">
<metadata>
Created by potrace 1.14, written by Peter Selinger 2001-2017
</metadata>
<g transform="translate(0.000000,981.000000) scale(0.100000,-0.100000)"
fill="#000000" stroke="none">
<path d="M747 8574 c-210 -38 -412 -160 -549 -332 -64 -81 -144 -234 -175
-337 -17 -57 -18 -198 -21 -2955 -2 -2082 0 -2913 8 -2960 29 -170 113 -336
236 -469 113 -122 276 -219 444 -263 l85 -23 4125 0 4125 0 85 23 c46 12 125
42 175 66 247 121 417 329 493 603 l27 98 0 2880 0 2880 -22 88 c-59 230 -195
431 -377 556 -68 47 -201 108 -291 133 l-80 23 -4105 2 c-3492 1 -4117 -1
-4183 -13z m903 -635 c74 -35 110 -67 145 -131 l30 -53 3 -374 c3 -416 2 -429
-64 -515 -24 -31 -54 -55 -101 -78 l-68 -33 -370 0 -370 0 -55 26 c-66 31
-121 85 -152 148 -23 45 -23 51 -23 431 0 380 0 386 23 431 40 83 120 147 209
168 21 5 196 9 388 8 l350 -2 55 -26z m5700 -3029 l0 -3060 -2450 0 -2450 0 0
3060 0 3060 2450 0 2450 0 0 -3060z m1662 3022 c67 -33 106 -71 144 -142 17
-32 19 -65 22 -409 3 -416 2 -429 -64 -515 -24 -31 -54 -55 -101 -78 l-68 -33
-370 0 -370 0 -56 26 c-68 32 -118 81 -150 145 -24 49 -24 52 -27 418 -2 313
0 376 13 416 32 97 109 168 214 197 34 9 139 12 396 10 l350 -2 67 -33z
m-7362 -2443 c74 -35 110 -67 145 -131 l30 -53 3 -374 c3 -416 2 -429 -64
-515 -24 -31 -54 -55 -101 -78 l-68 -33 -370 0 -370 0 -55 26 c-66 31 -121 85
-152 148 -23 45 -23 51 -23 431 0 380 0 386 23 431 40 83 120 147 209 168 21
5 196 9 388 8 l350 -2 55 -26z m7362 -7 c67 -33 106 -71 144 -142 17 -32 19
-65 22 -409 3 -416 2 -429 -64 -515 -24 -31 -54 -55 -101 -78 l-68 -33 -370 0
-370 0 -56 26 c-68 32 -118 81 -150 145 -24 49 -24 52 -27 418 -2 313 0 376
13 416 32 97 109 168 214 197 34 9 139 12 396 10 l350 -2 67 -33z m-7362
-2443 c74 -35 110 -67 145 -131 l30 -53 3 -374 c3 -416 2 -429 -64 -515 -24
-31 -54 -55 -101 -78 l-68 -33 -370 0 -370 0 -55 26 c-66 31 -121 85 -152 148
-23 45 -23 51 -23 431 0 380 0 386 23 431 40 83 120 147 209 168 21 5 196 9
388 8 l350 -2 55 -26z m7362 -7 c67 -33 106 -71 144 -142 17 -32 19 -65 22
-409 3 -416 2 -429 -64 -515 -24 -31 -54 -55 -101 -78 l-68 -33 -370 0 -370 0
-56 26 c-68 32 -118 81 -150 145 -24 49 -24 52 -27 418 -2 313 0 376 13 416
32 97 109 168 214 197 34 9 139 12 396 10 l350 -2 67 -33z"/>
<path d="M3599 6437 c-102 -29 -166 -84 -211 -183 l-23 -49 0 -1295 0 -1295
26 -55 c37 -79 72 -115 145 -151 56 -28 76 -32 141 -32 l76 0 1279 639 c1394
696 1332 661 1379 772 28 65 28 179 0 244 -47 111 16 76 -1378 771 -1392 694
-1325 665 -1434 634z"/>
</g>
</svg>
